<svg xmlns="http://www.w3.org/2000/svg" width="640" height="360" fill="none" viewBox="0 0 640 360"><g id="contained-list"><g id="Group"><rect id="Rectangle 6 Copy 23" width="170" height="10" x="158" y="236" fill="#A8A8A8"/><g id="color/gray/20 copy 87"><rect width="138" height="1" fill="#DCDCDC" transform="matrix(2 0 0 -2 170 218)"/></g><g id="color/gray/20 copy 88"><rect id="gray-30" width="176" height="1" fill="#BEBEBE" transform="matrix(2 0 0 -2 144 266)"/></g><rect id="Rectangle 6 Copy 24" width="170" height="10" x="158" y="140" fill="#A8A8A8"/><rect id="Rectangle 6 Copy 25" width="120" height="10" x="158" y="188" fill="#A8A8A8"/><g id="color/gray/20 copy 90"><rect id="gray-30_2" width="176" height="1" fill="#BEBEBE" transform="matrix(2 0 0 -2 144 170)"/></g><g id="color/gray/20 copy 91"><rect id="gray-30_3" width="176" height="1" fill="#BEBEBE" transform="matrix(2 0 0 -2 144 218)"/></g></g><rect id="Rectangle 127" width="384" height="30" x="128" y="92" fill="#F3F3F3"/><rect id="Rectangle 6 Copy 26" width="66" height="6" x="158" y="104" fill="#A2A9B0"/><g id="icon/navigation/close/16 copy 3"><path id="icon color" fill="#000" fill-rule="evenodd" d="M472.884 146L477 141.884L476.116 141L472 145.116L467.884 141L467 141.884L471.116 146L467 150.116L467.884 151L472 146.884L476.116 151L477 150.116L472.884 146Z" clip-rule="evenodd"/><mask id="mask0_402_5452" width="10" height="10" x="467" y="141" maskUnits="userSpaceOnUse" style="mask-type:luminance"><path id="icon color_2" fill="#fff" fill-rule="evenodd" d="M472.884 146L477 141.884L476.116 141L472 145.116L467.884 141L467 141.884L471.116 146L467 150.116L467.884 151L472 146.884L476.116 151L477 150.116L472.884 146Z" clip-rule="evenodd"/></mask></g><g id="icon/navigation/close/16 copy 4"><path id="icon color_3" fill="#000" fill-rule="evenodd" d="M472.884 192L477 187.884L476.116 187L472 191.116L467.884 187L467 187.884L471.116 192L467 196.116L467.884 197L472 192.884L476.116 197L477 196.116L472.884 192Z" clip-rule="evenodd"/><mask id="mask1_402_5452" width="10" height="10" x="467" y="187" maskUnits="userSpaceOnUse" style="mask-type:luminance"><path id="icon color_4" fill="#fff" fill-rule="evenodd" d="M472.884 192L477 187.884L476.116 187L472 191.116L467.884 187L467 187.884L471.116 192L467 196.116L467.884 197L472 192.884L476.116 197L477 196.116L472.884 192Z" clip-rule="evenodd"/></mask></g><g id="icon/navigation/close/16 copy 5"><path id="icon color_5" fill="#000" fill-rule="evenodd" d="M472.884 242L477 237.884L476.116 237L472 241.116L467.884 237L467 237.884L471.116 242L467 246.116L467.884 247L472 242.884L476.116 247L477 246.116L472.884 242Z" clip-rule="evenodd"/><mask id="mask2_402_5452" width="10" height="10" x="467" y="237" maskUnits="userSpaceOnUse" style="mask-type:luminance"><path id="icon color_6" fill="#fff" fill-rule="evenodd" d="M472.884 242L477 237.884L476.116 237L472 241.116L467.884 237L467 237.884L471.116 242L467 246.116L467.884 247L472 242.884L476.116 247L477 246.116L472.884 242Z" clip-rule="evenodd"/></mask></g></g></svg>