<svg xmlns="http://www.w3.org/2000/svg" xmlns:xlink="http://www.w3.org/1999/xlink" width="320" height="180" version="1.1" viewBox="0 0 320 180"><title>form-group</title><g id="form-group" fill="none" fill-rule="evenodd" stroke="none" stroke-width="1"><rect id="Rectangle-25-Copy-22" width="140" height="16" x="90" y="74" fill="#F4F4F4"/><rect id="Rectangle-25-Copy-24" width="140" height="1" x="90" y="89" fill="#8D8D8D"/><rect id="Rectangle-25-Copy-23" width="138.86" height="14.86" x="90.57" y="39.57" fill="#F4F4F4" stroke="#006AFF" stroke-width="1.14"/><rect id="Rectangle-Copy-30" width="27" height="3" x="104" y="112" fill="#C6C6C6"/><rect id="Rectangle-Copy-34" width="27" height="3" x="153" y="112" fill="#C6C6C6"/><rect id="Rectangle-Copy-31" width="33" height="3" x="91" y="32" fill="#C6C6C6"/><rect id="Rectangle-Copy-32" width="33" height="3" x="91" y="67" fill="#C6C6C6"/><rect id="Rectangle-Copy-33" width="33" height="3" x="91" y="102" fill="#C6C6C6"/><rect id="Rectangle-Copy-24" width="76" height="18" x="90" y="130" fill="#0F6DFF"/><g id="icon-/-toggle-/-radio-button-/-checked-/-20" fill="#161616" transform="translate(90.000000, 109.000000)"><path id="Fill" d="M4.5,0.5625 C2.3253788,0.5625 0.5625,2.3253788 0.5625,4.5 C0.5625,6.6746212 2.3253788,8.4375 4.5,8.4375 C6.6746212,8.4375 8.4375,6.6746212 8.4375,4.5 C8.4375,3.45571007 8.02265744,2.45419154 7.28423295,1.71576705 C6.54580846,0.977342559 5.54428993,0.5625 4.5,0.5625 Z M4.5,7.875 C2.63603897,7.875 1.125,6.36396103 1.125,4.5 C1.125,2.63603897 2.63603897,1.125 4.5,1.125 C6.36396103,1.125 7.875,2.63603897 7.875,4.5 C7.875,6.36396103 6.36396103,7.875 4.5,7.875 L4.5,7.875 Z M4.5,2.8125 C3.56801948,2.8125 2.8125,3.56801948 2.8125,4.5 C2.8125,5.43198052 3.56801948,6.1875 4.5,6.1875 C5.43198052,6.1875 6.1875,5.43198052 6.1875,4.5 C6.1875,3.56801948 5.43198052,2.8125 4.5,2.8125 Z"/></g><g id="icon-/-toggle-/-radio-button-/-unchecked-/-20" fill="#161616" transform="translate(139.000000, 109.000000)"><path id="Fill" d="M4.5,0.5625 C2.3253788,0.5625 0.5625,2.3253788 0.5625,4.5 C0.5625,6.6746212 2.3253788,8.4375 4.5,8.4375 C6.6746212,8.4375 8.4375,6.6746212 8.4375,4.5 C8.4375,3.45571007 8.02265744,2.45419154 7.28423295,1.71576705 C6.54580846,0.977342559 5.54428993,0.5625 4.5,0.5625 Z M4.5,7.875 C2.63603897,7.875 1.125,6.36396103 1.125,4.5 C1.125,2.63603897 2.63603897,1.125 4.5,1.125 C6.36396103,1.125 7.875,2.63603897 7.875,4.5 C7.875,6.36396103 6.36396103,7.875 4.5,7.875 L4.5,7.875 Z"/></g><rect id="Rectangle-Copy-35" width="27" height="3" x="202" y="112" fill="#C6C6C6"/><g id="icon-/-toggle-/-radio-button-/-unchecked-/-20" fill="#161616" transform="translate(188.000000, 109.000000)"><path id="Fill" d="M4.5,0.5625 C2.3253788,0.5625 0.5625,2.3253788 0.5625,4.5 C0.5625,6.6746212 2.3253788,8.4375 4.5,8.4375 C6.6746212,8.4375 8.4375,6.6746212 8.4375,4.5 C8.4375,3.45571007 8.02265744,2.45419154 7.28423295,1.71576705 C6.54580846,0.977342559 5.54428993,0.5625 4.5,0.5625 Z M4.5,7.875 C2.63603897,7.875 1.125,6.36396103 1.125,4.5 C1.125,2.63603897 2.63603897,1.125 4.5,1.125 C6.36396103,1.125 7.875,2.63603897 7.875,4.5 C7.875,6.36396103 6.36396103,7.875 4.5,7.875 L4.5,7.875 Z"/></g></g></svg>