<svg xmlns="http://www.w3.org/2000/svg" xmlns:xlink="http://www.w3.org/1999/xlink" width="320" height="180" version="1.1" viewBox="0 0 320 180"><title>menus</title><defs><path id="path-1" d="M108,128 L1,128 L1,19 L88,19 L88,0 L108,0 L108,128 Z"/><filter id="filter-2" width="115%" height="112.5%" x="-7.5%" y="-5.5%" filterUnits="objectBoundingBox"><feOffset dx="0" dy="1" in="SourceAlpha" result="shadowOffsetOuter1"/><feGaussianBlur in="shadowOffsetOuter1" result="shadowBlurOuter1" stdDeviation="2.5"/><feColorMatrix in="shadowBlurOuter1" type="matrix" values="0 0 0 0 0 0 0 0 0 0 0 0 0 0 0 0 0 0 0.3 0"/></filter><rect id="path-3" width="7.5" height="7.5" x="0" y="0" rx="2"/><polygon id="path-5" points="1.563 3.281 0 1.731 .497 1.241 1.563 2.297 3.878 0 4.375 .494"/></defs><g id="menus" fill="none" fill-rule="evenodd" stroke="none" stroke-width="1"><g id="filter-panel" transform="translate(105.000000, 26.000000)"><g id="Combined-Shape" fill-rule="nonzero"><use fill="#000" fill-opacity="1" filter="url(#filter-2)" xlink:href="#path-1"/><use fill="#F4F4F4" xlink:href="#path-1"/></g><rect id="Rectangle-2-Copy-30" width="109" height="18" x="0" y="38" fill="#DCDCDC" opacity=".6"/><rect id="Rectangle-Copy-37" width="42.773" height="5" x="25.273" y="43.961" fill="#8D8D8D" fill-rule="nonzero"/><rect id="Rectangle-Copy-37-Copy" width="42.773" height="5" x="25.273" y="79.961" fill="#A8A8A8" fill-rule="nonzero" opacity=".75"/><rect id="Rectangle-Copy-40" width="53.932" height="5" x="25.273" y="26.118" fill="#A8A8A8" fill-rule="nonzero" opacity=".75"/><rect id="Rectangle-Copy-40-Copy" width="53.932" height="5" x="25.273" y="62.118" fill="#A8A8A8" fill-rule="nonzero" opacity=".75"/><line id="Path-4-Copy-6-Copy" x1=".948" x2="108.052" y1="73.588" y2="73.588" stroke="#A8A8A8" stroke-width=".64"/><line id="Path-4-Copy-7-Copy" x1=".948" x2="108.052" y1="91.431" y2="91.431" stroke="#A8A8A8" stroke-width=".64"/><rect id="Rectangle-Copy-37-Copy-2" width="42.773" height="5" x="25.273" y="115.961" fill="#A8A8A8" fill-rule="nonzero" opacity=".75"/><rect id="Rectangle-Copy-40-Copy-2" width="53.932" height="5" x="25.273" y="98.118" fill="#A8A8A8" fill-rule="nonzero" opacity=".75"/><line id="Path-4-Copy-6-Copy-2" x1=".948" x2="108.052" y1="109.588" y2="109.588" stroke="#A8A8A8" stroke-width=".64"/></g><g id="icon/navigation/overflow-menu/16-copy-9" fill="#000" transform="translate(198.000000, 31.000000)"><path id="Fill" d="M9.375,2.1875 L7.78125,2.1875 C7.63337735,1.45927376 6.993088,0.935933574 6.25,0.935933574 C5.506912,0.935933574 4.86662265,1.45927376 4.71875,2.1875 L0.625,2.1875 L0.625,2.8125 L4.71875,2.8125 C4.86662265,3.54072624 5.506912,4.06406643 6.25,4.06406643 C6.993088,4.06406643 7.63337735,3.54072624 7.78125,2.8125 L9.375,2.8125 L9.375,2.1875 Z M6.25,3.4375 C5.73223305,3.4375 5.3125,3.01776695 5.3125,2.5 C5.3125,1.98223305 5.73223305,1.5625 6.25,1.5625 C6.76776695,1.5625 7.1875,1.98223305 7.1875,2.5 C7.1875,3.01776695 6.76776695,3.4375 6.25,3.4375 L6.25,3.4375 Z M0.625,7.8125 L2.21875,7.8125 C2.36662265,8.54072624 3.006912,9.06406643 3.75,9.06406643 C4.493088,9.06406643 5.13337735,8.54072624 5.28125,7.8125 L9.375,7.8125 L9.375,7.1875 L5.28125,7.1875 C5.13337735,6.45927376 4.493088,5.93593357 3.75,5.93593357 C3.006912,5.93593357 2.36662265,6.45927376 2.21875,7.1875 L0.625,7.1875 L0.625,7.8125 Z M2.8125,7.5 C2.8125,6.98223305 3.23223305,6.5625 3.75,6.5625 C4.26776695,6.5625 4.6875,6.98223305 4.6875,7.5 C4.6875,8.01776695 4.26776695,8.4375 3.75,8.4375 C3.23223305,8.4375 2.8125,8.01776695 2.8125,7.5 Z"/></g><g id="checkbox" fill="#161616" transform="translate(114.000000, 50.000000)"><path id="Fill" d="M8.125,1.25 L1.875,1.25 C1.52982203,1.25 1.25,1.52982203 1.25,1.875 L1.25,8.125 C1.25,8.47017797 1.52982203,8.75 1.875,8.75 L8.125,8.75 C8.47017797,8.75 8.75,8.47017797 8.75,8.125 L8.75,1.875 C8.75,1.52982203 8.47017797,1.25 8.125,1.25 Z M1.875,8.125 L1.875,1.875 L8.125,1.875 L8.125,8.125 L1.875,8.125 Z"/></g><g id="checkbox" fill="#161616" transform="translate(114.000000, 86.000000)"><path id="Fill" d="M8.125,1.25 L1.875,1.25 C1.52982203,1.25 1.25,1.52982203 1.25,1.875 L1.25,8.125 C1.25,8.47017797 1.52982203,8.75 1.875,8.75 L8.125,8.75 C8.47017797,8.75 8.75,8.47017797 8.75,8.125 L8.75,1.875 C8.75,1.52982203 8.47017797,1.25 8.125,1.25 Z M1.875,8.125 L1.875,1.875 L8.125,1.875 L8.125,8.125 L1.875,8.125 Z"/></g><g id="checkbox" fill="#161616" transform="translate(114.000000, 122.000000)"><path id="Fill" d="M8.125,1.25 L1.875,1.25 C1.52982203,1.25 1.25,1.52982203 1.25,1.875 L1.25,8.125 C1.25,8.47017797 1.52982203,8.75 1.875,8.75 L8.125,8.75 C8.47017797,8.75 8.75,8.47017797 8.75,8.125 L8.75,1.875 C8.75,1.52982203 8.47017797,1.25 8.125,1.25 Z M1.875,8.125 L1.875,1.875 L8.125,1.875 L8.125,8.125 L1.875,8.125 Z"/></g><g id="checkbox" fill="#161616" transform="translate(114.000000, 104.000000)"><path id="Fill" d="M8.125,1.25 L1.875,1.25 C1.52982203,1.25 1.25,1.52982203 1.25,1.875 L1.25,8.125 C1.25,8.47017797 1.52982203,8.75 1.875,8.75 L8.125,8.75 C8.47017797,8.75 8.75,8.47017797 8.75,8.125 L8.75,1.875 C8.75,1.52982203 8.47017797,1.25 8.125,1.25 Z M1.875,8.125 L1.875,1.875 L8.125,1.875 L8.125,8.125 L1.875,8.125 Z"/></g><g id="checkbox" fill="#161616" transform="translate(114.000000, 140.000000)"><path id="Fill" d="M8.125,1.25 L1.875,1.25 C1.52982203,1.25 1.25,1.52982203 1.25,1.875 L1.25,8.125 C1.25,8.47017797 1.52982203,8.75 1.875,8.75 L8.125,8.75 C8.47017797,8.75 8.75,8.47017797 8.75,8.125 L8.75,1.875 C8.75,1.52982203 8.47017797,1.25 8.125,1.25 Z M1.875,8.125 L1.875,1.875 L8.125,1.875 L8.125,8.125 L1.875,8.125 Z"/></g><g id="Group" transform="translate(114.000000, 68.000000)"><g id="checkbox--checked--filled" transform="translate(1.250000, 1.250000)"><g id="icon-color-2"><mask id="mask-4" fill="#fff"><use xlink:href="#path-3"/></mask><use id="Mask" fill="#000" fill-rule="nonzero" xlink:href="#path-3"/><g id="Group" mask="url(#mask-4)"><g id="icon-color-2" transform="translate(-1.250000, -1.250000)"><rect id="Rectangle" width="10" height="10" x="0" y="0" fill="#000"/></g></g></g><g id="icon-color-1" transform="translate(1.562500, 2.187500)"><mask id="mask-6" fill="#fff"><use xlink:href="#path-5"/></mask><use id="Mask" fill="#FFF" fill-rule="nonzero" xlink:href="#path-5"/><g id="Group" mask="url(#mask-6)"><g id="icon-color-1" transform="translate(-2.812500, -3.437500)"><rect id="Rectangle" width="10" height="10" x="0" y="0" fill="#FFF"/></g></g></g></g><rect id="transparent-rectangle" width="10" height="10" x="0" y="0"/></g></g></svg>