<svg xmlns="http://www.w3.org/2000/svg" xmlns:xlink="http://www.w3.org/1999/xlink" width="320" height="180" version="1.1" viewBox="0 0 320 180"><title>pagination-unstable</title><defs><polygon id="path-1" points="0 0 2.5 2.188 0 4.375"/><polygon id="path-3" points="0 0 2.5 2.188 0 4.375"/></defs><g id="pagination-unstable" fill="none" fill-rule="evenodd" stroke="none" stroke-width="1"><g id="Group" transform="translate(56.000000, 77.000000)"><rect id="Rectangle-2-Copy-486" width="161" height="24" x="0" y="0" fill="#F4F4F4"/><rect id="Rectangle-2-Copy-487" width="24" height="24" x="184" y="0" fill="#F4F4F4"/><rect id="Rectangle-2-Copy-488" width="24" height="24" x="160" y="0" fill="#F4F4F4" transform="translate(172.000000, 12.000000) scale(-1, 1) translate(-172.000000, -12.000000)"/><g id="icon/navigation/caret/right/20-copy-24" transform="translate(192.000000, 8.000000)"><g id="caret--right" transform="translate(4.062500, 2.812500)"><mask id="mask-2" fill="#fff"><use xlink:href="#path-1"/></mask><use id="Mask" fill="#000" fill-rule="nonzero" xlink:href="#path-1"/><g id="Group" mask="url(#mask-2)"><g id="icon-color" transform="translate(-4.062500, -2.812500)"><rect id="Rectangle" width="20" height="20" x="0" y="0" fill="#000"/></g></g></g><polygon id="transparent-rectangle" points="0 0 10 0 10 10 0 10" transform="translate(5.000000, 5.000000) rotate(-90.000000) translate(-5.000000, -5.000000)"/></g><g id="icon/navigation/caret/right/20-copy-25"><g transform="translate(168.000000, 8.000000) translate(5.000000, 5.000000) scale(-1, 1) translate(-5.000000, -5.000000)"><g id="caret--right" transform="translate(4.062500, 2.812500)"><mask id="mask-4" fill="#fff"><use xlink:href="#path-3"/></mask><use id="Mask" fill="#000" fill-rule="nonzero" xlink:href="#path-3"/><g id="Group" mask="url(#mask-4)"><g id="icon-color" transform="translate(-4.062500, -2.812500)"><rect id="Rectangle" width="20" height="20" x="0" y="0" fill="#000"/></g></g></g><polygon id="transparent-rectangle" points="0 0 10 0 10 10 0 10" transform="translate(5.000000, 5.000000) rotate(-90.000000) translate(-5.000000, -5.000000)"/></g></g><rect id="Rectangle-8-Copy-2" width="1" height="24" x="160" y="0" fill="#C6C6C6"/><rect id="Rectangle-8-Copy-3" width="1" height="24" x="184" y="0" fill="#C6C6C6"/></g><rect id="Rectangle-3-Copy-18" width="40" height="4" x="67.45" y="87" fill="#BEBEBE"/></g></svg>