<svg xmlns="http://www.w3.org/2000/svg" xmlns:xlink="http://www.w3.org/1999/xlink" width="320" height="180" version="1.1" viewBox="0 0 320 180"><title>stack</title><g id="stack" fill="none" fill-rule="evenodd" stroke="none" stroke-width="1"><rect id="Rectangle-2-Copy-31" width="108" height="16" x="106" y="34" fill="#F4F4F4" opacity=".6"/><rect id="Rectangle-2-Copy-32" width="108" height="16" x="106" y="66" fill="#F4F4F4" opacity=".6"/><rect id="Rectangle-3-Copy-18" width="43.05" height="4" x="115" y="40" fill="#C6C6C6"/><rect id="Rectangle-3-Copy-19" width="43.05" height="4" x="115" y="72" fill="#C6C6C6"/><rect id="Rectangle-2-Copy-31" width="108" height="1" x="106" y="49" fill="#8D8D8D" opacity=".6"/><rect id="Rectangle-2-Copy-33" width="108" height="1" x="106" y="81" fill="#8D8D8D" opacity=".6"/><rect id="Rectangle" width="16" height="16" x="106" y="50" fill="#8A3FFC"/><rect id="Rectangle-Copy-3" width="92" height="16" x="122" y="50" fill="#E8DAFF" opacity=".75"/><rect id="Rectangle-Copy" width="16" height="16" x="106" y="82" fill="#8A3FFC"/><rect id="Rectangle-Copy-4" width="92" height="16" x="122" y="82" fill="#E8DAFF" opacity=".75"/><rect id="Rectangle-2-Copy-35" width="108" height="16" x="106" y="98" fill="#F4F4F4" opacity=".6"/><rect id="Rectangle-2-Copy-36" width="108" height="16" x="106" y="130" fill="#F4F4F4" opacity=".6"/><rect id="Rectangle-3-Copy-20" width="43.05" height="4" x="115" y="104" fill="#C6C6C6"/><rect id="Rectangle-3-Copy-21" width="43.05" height="4" x="115" y="136" fill="#C6C6C6"/><rect id="Rectangle-2-Copy-34" width="108" height="1" x="106" y="113" fill="#8D8D8D" opacity=".6"/><rect id="Rectangle-2-Copy-37" width="108" height="1" x="106" y="145" fill="#8D8D8D" opacity=".6"/><rect id="Rectangle-Copy-2" width="16" height="16" x="106" y="114" fill="#8A3FFC"/><rect id="Rectangle-Copy-5" width="92" height="16" x="122" y="114" fill="#E8DAFF" opacity=".75"/></g></svg>