<svg xmlns="http://www.w3.org/2000/svg" id="icon" width="32" height="32" viewBox="0 0 32 32"><defs><style>.cls-1{fill:none}.cls-1,.cls-2{stroke-width:0}</style></defs><polygon points="25 8 23.372 9.162 28.542 16 23.386 22.838 25.014 24 31 16 25 8" class="cls-2"/><polygon points="20 8 18.372 9.162 23.542 16 18.386 22.838 20.014 24 26 16 20 8" class="cls-2"/><polygon points="8.628 9.162 7 8 1 16 6.986 24 8.614 22.838 3.458 16 8.628 9.162" class="cls-2"/><polygon points="12 8 6 16 11.986 24 13.614 22.838 8.458 16 13.628 9.162 12 8" class="cls-2"/><rect id="_Transparent_Rectangle_" width="32" height="32" class="cls-1" data-name="&amp;lt;Transparent Rectangle&amp;gt;"/></svg>