<svg xmlns="http://www.w3.org/2000/svg" id="icon" width="32" height="32" viewBox="0 0 32 32"><defs><style>.cls-1{fill:none}</style></defs><polygon points="21.018 26.722 22.016 28.454 24.994 26.732 24.994 30 26.991 30 26.991 26.732 30.002 28.473 31 26.74 27.99 25 30.99 23.265 29.992 21.532 26.991 23.268 26.991 20 24.994 20 24.994 23.267 21.998 21.535 21 23.268 23.995 25 21.018 26.722"/><path d="m16,23c-.8284,0-1.5.6716-1.5,1.5s.6716,1.5,1.5,1.5,1.5-.6716,1.5-1.5-.6716-1.5-1.5-1.5h0Z"/><rect width="2" height="9" x="15" y="12"/><path d="m18,30H3c-.3494,0-.6736-.1824-.8547-.4811-.1814-.2986-.1936-.6703-.0325-.9802L15.1128,3.5387c.1721-.3311.5297-.5387.8872-.5387s.7151.2076.8872.5387l6.76,13-1.7744.9226-5.8728-11.2938L4.6472,28h13.3528v2Z"/><rect id="_Transparent_Rectangle_" width="32" height="32" class="cls-1" data-name="&amp;lt;Transparent Rectangle&amp;gt;"/></svg>