<svg xmlns="http://www.w3.org/2000/svg" id="icon" width="32" height="32" viewBox="0 0 32 32"><defs><style>.cls-1{fill:none}.cls-1,.cls-2{stroke-width:0}</style></defs><path d="m29.9467,13.9356h-2c-.7368,0-1.3748.4051-1.7218,1H6.0151l2.625-7h7.3073v-2h-7.3073c-.8291,0-1.5811.521-1.873,1.2974l-2.5137,6.7026-2.3066-.0005v2l2,.0002v9.0002c0,1.103.8975,2,2,2v3h2v-3h16v3h2v-3c1.1025,0,2-.897,2-2v-9h2v-2ZM5.9467,24.9356v-3h3v-2h-3v-3h20v3h-3v2h3v3H5.9467Z" class="cls-2"/><rect width="8" height="2" x="11.979" y="19.941" class="cls-2"/><polygon points="29.537 2.526 22.947 9.115 20.357 6.526 18.947 7.936 22.947 11.936 30.947 3.936 29.537 2.526" class="cls-2"/><rect id="_Transparent_Rectangle_" width="32" height="32" class="cls-1" data-name="&amp;lt;Transparent Rectangle&amp;gt;"/></svg>