<svg xmlns="http://www.w3.org/2000/svg" id="icon" width="32" height="32" viewBox="0 0 32 32"><defs><style>.cls-1{fill:none}</style></defs><rect width="2" height="3.657" x="15" y="11.671" transform="translate(-4.8597 15.2678) rotate(-45)"/><rect width="2" height="3.657" x="15" y="16.672" transform="translate(-8.3952 16.7322) rotate(-45)"/><path d="M19,24H13a2.0023,2.0023,0,0,1-2-2V10a2.0023,2.0023,0,0,1,2-2h6a2.0023,2.0023,0,0,1,2,2V22A2.0023,2.0023,0,0,1,19,24ZM13,10V22h6.0012L19,10Z"/><path d="M16,31a.9988.9988,0,0,1-.5039-.1357l-12-7A1.0008,1.0008,0,0,1,3,23V9a.9994.9994,0,0,1,.4961-.8638l12-7a1,1,0,0,1,1.0078,0l12,7L27.4961,9.8638,16,3.1577,5,9.5742V22.4258l11,6.417,11-6.417V15h2v8a1.0008,1.0008,0,0,1-.4961.8643l-12,7A.9988.9988,0,0,1,16,31Z"/><rect id="_Transparent_Rectangle_" width="32" height="32" class="cls-1" data-name="&lt;Transparent Rectangle&gt;"/></svg>