<svg xmlns="http://www.w3.org/2000/svg" id="icon" width="32" height="32" viewBox="0 0 32 32"><defs><style>.cls-1{fill:none}.cls-1,.cls-2{stroke-width:0}</style></defs><rect width="2" height="4" x="19" y="27" class="cls-2" transform="translate(49 9) rotate(90)"/><rect width="2" height="4" x="25" y="27" class="cls-2" transform="translate(55 3) rotate(90)"/><path d="m13,28v-3h-2v3c0,1.1046.8954,2,2,2h3v-2h-3Z" class="cls-2"/><rect width="2" height="4" x="11" y="19" class="cls-2"/><rect width="2" height="4" x="11" y="13" class="cls-2"/><polygon points="22 12 12 2 2 12 3.414 13.414 11 5.828 11 11 13 11 13 5.828 20.586 13.414 22 12" class="cls-2"/><rect id="_Transparent_Rectangle_" width="32" height="32" class="cls-1" data-name="&amp;lt;Transparent Rectangle&amp;gt;"/></svg>