<svg xmlns="http://www.w3.org/2000/svg" id="Layer_1" width="32" height="32" data-name="Layer 1" viewBox="0 0 32 32"><defs><style>.cls-1{fill:none}</style></defs><path id="task--hold" d="M27,30h-2v-9h2v9ZM23,30h-2v-9h2v9ZM17,30H7c-1.103,0-2-.8975-2-2V7c0-1.103.897-2,2-2h3v-1c0-1.103.897-2,2-2h8c1.1025,0,2,.897,2,2v1h3c1.1025,0,2,.897,2,2v10h-2V7h-3v3h-12v-3h-3v21h10v2ZM12,8h8v-4h-8v4Z"/><rect id="Transparent_Rectangle" width="32" height="32" class="cls-1" data-name="Transparent Rectangle"/></svg>