<svg xmlns="http://www.w3.org/2000/svg" id="icon" width="32" height="32" viewBox="0 0 32 32"><defs><style>.cls-1{fill:none}</style></defs><polygon points="18.586 17.414 16 14.835 16 14.835 13.412 17.416 12 16 16 12 20 16 18.586 17.414"/><polygon points="18.586 11.414 16 8.835 16 8.835 13.412 11.416 12 10 16 6 20 10 18.586 11.414"/><polygon points="18.586 23.414 16 20.834 16 20.834 13.412 23.416 12 22 16 18 20 22 18.586 23.414"/><path d="m1.5858,17.4142c-.3905-.3905-.5858-.9024-.5858-1.4142s.1953-1.0237.5858-1.4142L14.5858,1.5858c.3905-.3905.9023-.5858,1.4142-.5858s1.0237.1953,1.4142.5858l13,13c.3905.3905.5858.9024.5858,1.4142s-.1953,1.0237-.5858,1.4142l-13,13c-.3905.3905-.9024.5858-1.4142.5858s-1.0237-.1953-1.4142-.5858L1.5858,17.4142ZM16,3L3,16l13,13,13-13L16,3Z"/><rect id="_Transparent_Rectangle_" width="32" height="32" class="cls-1" data-name="&amp;lt;Transparent Rectangle&amp;gt;"/></svg>