<svg xmlns="http://www.w3.org/2000/svg" xmlns:xlink="http://www.w3.org/1999/xlink" width="320" height="180" version="1.1" viewBox="0 0 320 180"><title>grid</title><g id="grid" fill="none" fill-rule="evenodd" stroke="none" stroke-width="1"><rect id="Rectangle" width="183" height="111" x="68" y="37" fill="#FFF"/><g id="Browser-/-Grid-/-448-/-Light" fill="#D0E2FF" opacity=".3" transform="translate(72.188358, 43.000000)"><g id="Grid" transform="translate(-0.000000, 0.000000)"><rect id="Column" width="6.882" height="105" x="168.435" y="0"/><rect id="Column" width="6.882" height="105" x="157.206" y="0"/><rect id="Column" width="6.882" height="105" x="145.977" y="0"/><rect id="Column" width="6.882" height="105" x="134.748" y="0"/><rect id="Column" width="6.882" height="105" x="123.519" y="0"/><rect id="Column" width="6.882" height="105" x="112.29" y="0"/><rect id="Column" width="6.882" height="105" x="101.061" y="0"/><rect id="Column" width="6.882" height="105" x="89.832" y="0"/><rect id="Column" width="6.882" height="105" x="78.603" y="0"/><rect id="Column" width="6.882" height="105" x="67.374" y="0"/><rect id="Column" width="6.882" height="105" x="56.145" y="0"/><rect id="Column" width="6.882" height="105" x="44.916" y="0"/><rect id="Column" width="6.882" height="105" x="33.687" y="0"/><rect id="Column" width="6.882" height="105" x="22.458" y="0"/><rect id="Column" width="6.882" height="105" x="11.229" y="0"/><rect id="Column" width="6.882" height="105" x="0" y="0"/></g></g><g id="Browser-/-Template-/-448-/-White" transform="translate(67.000000, 32.003521)"><rect id="Background" width="184.5" height="112.13" x=".25" y="4.246" stroke="#C6C6C6" stroke-width=".5"/><g id="Header-type" transform="translate(0.000000, 4.005964)"><polygon id="background" fill="#161616" points="0 0 185 0 185 6.944 0 6.944"/><rect id="border-bottom" width="185" height="1" x="0" y="6.799" fill="#393939"/><text id="[Name]" fill="#FFF" font-family="IBMPlexSans-SemiBold, IBM Plex Sans" font-size="2.025" font-weight="500" letter-spacing=".014" line-spacing="2.604"><tspan x="6.655" y="4.025">[Name]</tspan></text><text id="IBM" fill="#FFF" font-family="IBMPlexSans, IBM Plex Sans" font-size="2.025" font-weight="normal" letter-spacing=".014" line-spacing="2.604"><tspan x="2.315" y="4.025">IBM</tspan></text></g><g id="Browser-bar" transform="translate(0.000000, 0.000000)"><path id="Background" fill="#A8A8A8" d="M0.978,0 L184.022,0 C184.562134,-1.581948e-14 185,0.437865515 185,0.978 L185,4 L185,4 L0,4 L0,0.978 C4.48749056e-17,0.437865515 0.437865515,-1.2282351e-16 0.978,0 Z"/><ellipse id="Oval-2" cx="5.506" cy="2" fill="#FFF" rx="1" ry="1"/><ellipse id="Oval-1" cx="2.506" cy="2" fill="#FFF" rx="1" ry="1"/></g></g><rect id="Rectangle" width="16" height="6" x="68" y="36" fill="#161616"/></g></svg>