<svg xmlns="http://www.w3.org/2000/svg" id="icon" width="32" height="32" viewBox="0 0 32 32"><defs><style>.cls-1{fill:none}</style></defs><rect width="2" height="3" x="15" y="2"/><rect width="3" height="2" x="27" y="15"/><rect width="2" height="3" x="15" y="27"/><rect width="3" height="2" x="2" y="15"/><rect width="2.003" height="3.003" x="6.225" y="5.729" transform="translate(-2.9961 7.2278) rotate(-45)"/><rect width="3" height="2" x="23.267" y="6.227" transform="translate(2.1437 19.63) rotate(-45)"/><rect width="2.002" height="3.002" x="23.769" y="23.269" transform="translate(-10.2598 24.7686) rotate(-44.9986)"/><polygon points="5.47 25.126 7.591 23 9 24.419 6.884 26.54 5.47 25.126"/><rect width="2" height="2" x="15" y="13"/><rect width="2" height="2" x="19" y="13"/><rect width="2" height="2" x="17" y="11"/><rect width="2" height="2" x="17" y="15"/><rect width="2" height="2" x="17" y="19"/><rect width="2" height="2" x="15" y="17"/><rect width="2" height="2" x="19" y="17"/><path d="M16,7a9,9,0,1,0,9,9A9.01,9.01,0,0,0,16,7ZM9,16a7.004,7.004,0,0,1,6-6.92V11h2V9.08a6.9231,6.9231,0,0,1,2,.605V11h1.89c.0374.0366.074.0732.11.11V13h1.3149a6.931,6.931,0,0,1,.6053,2H21v2h1.92a6.931,6.931,0,0,1-.6053,2H21v1.89c-.0364.0372-.073.0738-.11.11H19v1.3149a6.9231,6.9231,0,0,1-2,.605V21H15v1.92A7.004,7.004,0,0,1,9,16Z"/><rect id="_Transparent_Rectangle_" width="32" height="32" class="cls-1" data-name="&lt;Transparent Rectangle&gt;"/></svg>